<?xml version="1.0" standalone="no"?>
<!DOCTYPE svg PUBLIC "-//W3C//DTD SVG 20010904//EN"
 "http://www.w3.org/TR/2001/REC-SVG-20010904/DTD/svg10.dtd">
<svg version="1.0" xmlns="http://www.w3.org/2000/svg"
 width="800.000000pt" height="800.000000pt" viewBox="0 0 800.000000 800.000000"
 preserveAspectRatio="xMidYMid meet">
<metadata>
Created by potrace 1.16, written by Peter Selinger 2001-2019
</metadata>
<g transform="translate(0.000000,800.000000) scale(0.100000,-0.100000)"
fill="#000000" stroke="none">
<path d="M370 6000 l0 -1630 161 0 161 0 -6 1438 c-4 818 -3 1431 2 1422 5 -8
260 -655 568 -1437 l559 -1423 181 0 c164 0 183 2 189 18 59 154 1120 2831
1126 2842 10 16 4 -2184 -7 -2622 l-6 -238 161 0 161 0 0 1630 0 1630 -237 -2
-238 -3 -570 -1462 c-313 -805 -573 -1463 -576 -1463 -3 0 -262 659 -575 1465
l-569 1465 -242 0 -243 0 0 -1630z"/>
<path d="M5545 7540 c-258 -47 -473 -131 -681 -268 -221 -145 -377 -350 -462
-607 -41 -126 -56 -221 -55 -360 2 -207 31 -325 147 -600 177 -417 440 -730
746 -885 41 -21 127 -73 190 -116 143 -96 215 -130 438 -204 236 -78 325 -94
537 -94 387 0 676 111 910 348 209 212 333 487 380 839 25 191 17 356 -26 572
-85 421 -339 792 -719 1047 -167 111 -475 238 -720 296 -226 54 -497 66 -685
32z m160 -834 c363 -43 570 -110 745 -241 62 -46 161 -148 202 -208 87 -127
122 -223 149 -402 32 -215 24 -280 -39 -341 -49 -48 -90 -68 -213 -103 -304
-87 -520 -76 -754 39 -240 117 -463 347 -566 580 -58 133 -40 253 64 425 101
166 199 265 261 265 17 0 85 -7 151 -14z"/>
<path d="M1830 3720 c-568 -56 -1043 -388 -1295 -904 -215 -440 -242 -1007
-68 -1471 41 -111 138 -296 206 -392 186 -264 494 -491 805 -592 184 -60 293
-76 532 -75 184 0 230 3 320 23 435 93 782 325 1025 686 65 97 167 311 204
426 120 383 117 811 -9 1190 -245 737 -940 1185 -1720 1109z m443 -305 c248
-56 449 -166 627 -345 344 -343 488 -880 380 -1411 -99 -485 -416 -863 -850
-1017 -153 -54 -237 -67 -430 -67 -193 0 -277 13 -430 67 -385 136 -676 446
-809 862 -100 311 -100 691 0 1002 136 424 434 736 831 869 160 53 246 65 443
60 102 -2 197 -10 238 -20z"/>
<path d="M4580 2000 l0 -1630 643 0 c353 0 684 5 736 10 294 31 561 125 791
278 114 76 309 271 389 390 158 235 246 498 271 814 43 543 -160 1075 -529
1382 -252 210 -543 332 -891 376 -51 6 -345 10 -747 10 l-663 0 0 -1630z
m1387 1354 c297 -44 529 -158 729 -358 199 -199 314 -428 366 -731 17 -103 19
-148 15 -310 -4 -135 -11 -216 -25 -280 -59 -271 -173 -487 -351 -666 -147
-147 -294 -237 -494 -304 -194 -65 -219 -67 -784 -72 l-513 -5 0 1371 0 1371
476 0 c379 0 498 -3 581 -16z"/>
</g>
</svg>
