<svg id="Layer_1" data-name="Layer 1" xmlns="http://www.w3.org/2000/svg" viewBox="0 0 72 72"><defs><style>.cls-1{fill:#fff;}</style></defs><path class="cls-1" d="M72,72H0V0H72ZM21.6,65.94c0-.35.06-.56.07-.76A21.38,21.38,0,0,0,19.12,54c-.74-1.34-1.55-2.63-2.35-3.94-2.91-4.79-5-9.86-5.31-15.55A19.27,19.27,0,0,1,12,28c.61-2,1.33-3.95,2-5.92,0-.06.09-.09.24-.22,0,.32,0,.52,0,.72-.16,1-.27,2.08-.49,3.11A23.8,23.8,0,0,0,15.25,40.5a31.72,31.72,0,0,0,5.83,9,23,23,0,0,1,3.8,5.31A97,97,0,0,1,29.7,66.43c.07.21.13.36.41.37a84.3,84.3,0,0,0,12.71-.51.68.68,0,0,0,.44-.3,9.35,9.35,0,0,0,1.13-4.8,16.23,16.23,0,0,0-.87-4.08,25.51,25.51,0,0,1-1.17-5.67,6.54,6.54,0,0,1,1.3-5,23.87,23.87,0,0,1,2.82-2.68,19,19,0,0,0,3.69-3.59A23.12,23.12,0,0,0,53.26,33c.59-2.23,1-4.51,1.45-6.76.08-.34.17-.67.25-1h.12a2.85,2.85,0,0,1,0,.29c0,1.63,0,3.27-.14,4.9a47.28,47.28,0,0,1-.49,4.74c-.68,4-1.43,8.09-2.15,12.13A7.49,7.49,0,0,0,53,52c.39.81.8,1.62,1.19,2.43a13.27,13.27,0,0,1,1.43,6.25c0,1.54,0,3.09,0,4.63,0,.31.1.41.41.42l9,.14a2.06,2.06,0,0,0,.34,0c-.14-1.2-.28-2.37-.4-3.55a43.91,43.91,0,0,1-.19-9.52c.63-5.31.77-10.65,1-16,.27-6.2.26-12.41.29-18.62,0-2.88-.18-5.76-.27-8.64,0-.29-.06-.5-.42-.57-2.32-.45-4.63-1-7-1.38A143.83,143.83,0,0,0,41.88,6.35c-.43,0-.56.15-.65.52A17.54,17.54,0,0,0,41,12.74a28.47,28.47,0,0,1-.25,9.3,16.45,16.45,0,0,0-.14,5.33c.09.67.14,1.34.18,2a4.43,4.43,0,0,1-1.53,3.77c-1.28,1.13-2.6,2.2-3.87,3.34a12.91,12.91,0,0,0-3.89,5.89A16.12,16.12,0,0,0,31,47.32v.49a22.76,22.76,0,0,1-1.16-2.16,29.66,29.66,0,0,1-2.77-7.1,27.05,27.05,0,0,1-.53-9.86c.38-2.47.81-4.94,1.18-7.41a9.86,9.86,0,0,0-.92-6.43,49.62,49.62,0,0,0-3-4.73c-1.09-1.54-2.32-3-3.46-4.48a.69.69,0,0,0-.74-.34c-2.89.39-5.8.69-8.68,1.18-2.42.4-4.81,1-7.21,1.53a.42.42,0,0,0-.4.48c-.08,4.57-.25,9.14-.25,13.72,0,5.76.1,11.52.2,17.27.06,3.44.14,6.87.34,10.3A23.85,23.85,0,0,0,7.13,61.1a7.39,7.39,0,0,1,.64,1.33c.23.61.2.62.84.5l.44-.08a10,10,0,0,1,6.21.65c.89.39,1.78.8,2.69,1.15C19.12,65.1,20.32,65.49,21.6,65.94Z"/><path d="M21.6,65.94c-1.28-.45-2.48-.84-3.65-1.29-.91-.35-1.8-.76-2.69-1.15a10,10,0,0,0-6.21-.65l-.44.08c-.64.12-.61.11-.84-.5a7.39,7.39,0,0,0-.64-1.33,23.85,23.85,0,0,1-3.5-11.32c-.2-3.43-.28-6.86-.34-10.3-.1-5.75-.2-11.51-.2-17.27,0-4.58.17-9.15.25-13.72A.42.42,0,0,1,3.74,8C6.14,7.49,8.53,6.88,11,6.48c2.88-.49,5.79-.79,8.68-1.18a.69.69,0,0,1,.74.34c1.14,1.5,2.37,2.94,3.46,4.48a49.62,49.62,0,0,1,3,4.73,9.86,9.86,0,0,1,.92,6.43c-.37,2.47-.8,4.94-1.18,7.41a27.05,27.05,0,0,0,.53,9.86,29.66,29.66,0,0,0,2.77,7.1A22.76,22.76,0,0,0,31,47.81v-.49a16.12,16.12,0,0,1,.48-4.94,12.91,12.91,0,0,1,3.89-5.89c1.27-1.14,2.59-2.21,3.87-3.34a4.43,4.43,0,0,0,1.53-3.77c0-.67-.09-1.34-.18-2A16.45,16.45,0,0,1,40.76,22a28.47,28.47,0,0,0,.25-9.3,17.54,17.54,0,0,1,.22-5.87c.09-.37.22-.53.65-.52A143.83,143.83,0,0,1,58.47,7.59c2.34.36,4.65.93,7,1.38.36.07.41.28.42.57.09,2.88.28,5.76.27,8.64,0,6.21,0,12.42-.29,18.62-.23,5.33-.37,10.67-1,16A43.91,43.91,0,0,0,65,62.3c.12,1.18.26,2.35.4,3.55a2.06,2.06,0,0,1-.34,0l-9-.14c-.31,0-.41-.11-.41-.42,0-1.54-.09-3.09,0-4.63a13.27,13.27,0,0,0-1.43-6.25c-.39-.81-.8-1.62-1.19-2.43a7.49,7.49,0,0,1-.64-4.73c.72-4,1.47-8.08,2.15-12.13A47.28,47.28,0,0,0,55,30.4c.11-1.63.1-3.27.14-4.9a2.85,2.85,0,0,0,0-.29H55c-.08.34-.17.67-.25,1-.47,2.25-.86,4.53-1.45,6.76a23.12,23.12,0,0,1-3.1,7.24,19,19,0,0,1-3.69,3.59,23.87,23.87,0,0,0-2.82,2.68,6.54,6.54,0,0,0-1.3,5,25.51,25.51,0,0,0,1.17,5.67,16.23,16.23,0,0,1,.87,4.08A9.35,9.35,0,0,1,43.26,66a.68.68,0,0,1-.44.3,84.3,84.3,0,0,1-12.71.51c-.28,0-.34-.16-.41-.37a97,97,0,0,0-4.82-11.66,23,23,0,0,0-3.8-5.31,31.72,31.72,0,0,1-5.83-9A23.8,23.8,0,0,1,13.7,25.64c.22-1,.33-2.07.49-3.11,0-.2,0-.4,0-.72-.15.13-.22.16-.24.22-.68,2-1.4,3.93-2,5.92a19.27,19.27,0,0,0-.52,6.6c.31,5.69,2.4,10.76,5.31,15.55.8,1.31,1.61,2.6,2.35,3.94a21.38,21.38,0,0,1,2.55,11.14C21.66,65.38,21.63,65.59,21.6,65.94Z"/></svg>